# xmcd CD Database Entry
#
# Track frame offsets:
# 150
# 16132
# 28629
# 53313
# 69557
# 86306
# 103123
# 120108
# 134365
# 147474
# 162074
# 178111
# 199798
# 215763
#
# Disc length: 3082 seconds
#
# Revision: 1
# Processed by: cddbd v1.4PL0 Copyright (c) Steve Scherf et al.
# Submitted via: tcd 2.0b
#
DISCID=b70c080e
DTITLE=THE CRANBERRIES/ Bury the hatchet
DYEAR=1900
DGENRE=
TTITLE0=Animal instinct
TTITLE1=Loud and clear
TTITLE2=Promises
TTITLE3=You and me
TTITLE4=Just my imagination
TTITLE5=Shattered
TTITLE6=Desperate Andy
TTITLE7=Saving grace
TTITLE8=Copycat
TTITLE9=What's on my mind
TTITLE10=Delilah
TTITLE11=Fee fi fo
TTITLE12=Dying in the sun
TTITLE13=Sorry son
EXTD=1999\n
EXTT0=
EXTT1=
EXTT2=
EXTT3=
EXTT4=
EXTT5=
EXTT6=
EXTT7=
EXTT8=
EXTT9=
EXTT10=
EXTT11=
EXTT12=
EXTT13=
PLAYORDER=
